<?xml version="1.0" standalone="no"?>
<!DOCTYPE svg PUBLIC "-//W3C//DTD SVG 20010904//EN"
 "http://www.w3.org/TR/2001/REC-SVG-20010904/DTD/svg10.dtd">
<svg version="1.0" xmlns="http://www.w3.org/2000/svg"
 width="1024.000000pt" height="1024.000000pt" viewBox="0 0 1024.000000 1024.000000"
 preserveAspectRatio="xMidYMid meet">
<metadata>
Created by potrace 1.16, written by Peter Selinger 2001-2019
</metadata>
<g transform="translate(0.000000,1024.000000) scale(0.100000,-0.100000)"
fill="#000000" stroke="none">
<path d="M3750 8204 c-237 -37 -484 -167 -666 -349 -189 -191 -293 -378 -357
-648 l-21 -92 -4 -1955 c-2 -1752 -1 -1963 13 -2034 63 -312 196 -532 440
-727 132 -106 293 -177 502 -221 l108 -23 1315 -3 c935 -2 1344 0 1414 8 113
13 304 65 418 115 104 45 225 131 329 234 141 140 233 304 286 506 l28 110 0
1940 0 1940 -28 90 c-35 112 -94 238 -136 289 -71 88 -585 563 -725 670 -66
50 -141 87 -261 127 l-100 34 -1230 2 c-1041 1 -1245 -1 -1325 -13z m2441
-416 c0 -308 10 -405 48 -482 54 -111 166 -189 306 -215 69 -13 488 -32 650
-30 l110 2 8 -239 c10 -332 0 -3647 -12 -3709 -17 -94 -43 -179 -68 -229 -117
-231 -322 -402 -563 -469 -135 -38 -171 -38 -1580 -35 -1505 4 -1407 0 -1582
63 -157 55 -363 230 -445 375 -44 79 -80 177 -109 300 -17 70 -19 192 -22
2020 -2 1440 0 1964 8 2020 16 102 99 320 122 320 5 0 17 20 28 44 22 51 129
187 168 212 15 10 49 36 77 58 99 81 296 165 435 185 30 5 587 9 1238 10
l1182 1 1 -202z m381 35 c95 -71 578 -513 578 -529 0 -2 -12 -1 -27 1 -16 3
-140 9 -278 15 -137 6 -267 16 -287 22 -21 6 -51 23 -68 37 l-31 26 -6 259
c-5 222 -4 258 8 250 8 -4 58 -41 111 -81z"/>
<path d="M4614 7462 l-1001 -2 -47 -41 c-25 -22 -46 -45 -46 -50 0 -5 15 6 34
24 29 29 41 34 92 37 81 5 141 4 261 -3 61 -4 105 -2 108 3 4 6 16 10 28 10
18 0 19 -2 7 -10 -19 -13 -8 -13 24 0 17 6 26 6 26 -1 0 -6 6 -6 19 1 23 12
42 14 24 2 -7 -4 8 -7 33 -7 24 0 44 4 44 8 0 5 82 5 183 1 262 -10 631 -12
532 -4 -51 5 -12 6 110 4 105 -1 211 -5 237 -7 27 -2 45 0 41 6 -3 5 4 4 15
-2 12 -6 54 -12 94 -13 40 -1 81 -5 91 -10 11 -6 23 -6 30 1 8 6 18 6 27 1 8
-6 29 -10 47 -10 17 0 34 -4 38 -9 3 -6 28 -7 55 -4 37 4 56 1 75 -11 25 -17
26 -17 17 1 -12 22 -50 57 -77 70 -34 17 -93 18 -1121 15z"/>
<path d="M3593 6690 c-38 -23 -93 -87 -93 -108 1 -12 5 -9 15 9 16 29 70 66
127 86 30 11 308 13 1500 11 1460 -3 1463 -3 1508 -24 48 -22 67 -41 87 -83
l13 -26 -6 25 c-9 36 -50 87 -87 108 -30 16 -124 17 -1534 18 -1400 1 -1504 0
-1530 -16z"/>
<path d="M6444 6006 c-16 -7 -47 -33 -67 -57 -66 -77 -71 -156 -13 -231 52
-69 78 -83 154 -83 87 0 154 32 197 93 25 36 30 53 30 102 0 49 -5 66 -30 101
-42 59 -102 89 -179 89 -34 -1 -75 -7 -92 -14z"/>
<path d="M3600 5993 c-21 -8 -70 -54 -82 -78 -6 -11 3 -5 19 13 23 28 36 34
70 35 22 1 39 -1 37 -4 -7 -12 59 -22 131 -20 90 2 115 -4 115 -29 0 -11 5
-20 10 -20 6 0 10 7 10 15 0 17 35 21 45 5 4 -6 10 -8 15 -5 5 3 71 8 147 11
75 3 140 8 143 12 9 13 83 15 76 3 -4 -6 -1 -11 7 -11 8 0 29 -3 46 -6 23 -5
31 -3 31 8 0 8 7 15 15 15 8 0 15 -4 15 -9 0 -4 11 -8 25 -8 14 0 25 5 25 10
0 6 8 10 18 10 10 0 22 3 26 7 4 4 36 6 71 5 35 -2 65 1 68 5 3 5 23 7 44 5
25 -3 32 -7 21 -11 -10 -3 25 -5 77 -4 52 1 97 -3 100 -8 4 -5 24 -6 46 -3 25
4 49 2 64 -6 19 -10 30 -10 54 0 17 7 70 14 118 16 131 6 144 6 158 -6 7 -6
24 -8 38 -5 17 5 37 0 57 -11 26 -16 32 -16 39 -5 7 11 15 11 40 3 29 -10 33
-9 41 11 5 13 9 16 10 7 0 -12 2 -13 9 -1 7 10 30 13 92 11 46 -2 98 -2 114
-1 17 1 45 2 63 3 43 2 81 -27 110 -82 13 -26 22 -37 22 -25 0 28 -48 92 -88
117 -30 19 -56 22 -206 29 -192 9 -2083 10 -2106 2z"/>
<path d="M6480 5341 c-108 -35 -169 -127 -151 -227 19 -98 96 -164 195 -164
126 0 218 81 218 191 -1 105 -84 192 -194 204 -24 2 -54 1 -68 -4z"/>
<path d="M3595 5295 c-62 -34 -96 -85 -94 -142 l1 -28 7 31 c11 46 17 51 63
58 42 7 452 17 733 18 118 0 626 -11 644 -14 3 -1 14 2 24 7 12 5 25 1 38 -11
14 -13 19 -14 17 -5 -2 12 19 15 106 18 101 4 108 3 102 -14 -5 -15 -4 -15 9
2 10 12 19 16 23 10 8 -12 100 -11 242 3 125 13 332 11 343 -3 4 -7 10 -6 15
1 10 15 66 29 57 14 -4 -6 -1 -9 6 -8 7 2 23 -12 36 -31 12 -19 23 -27 23 -19
0 25 -69 96 -103 106 -20 7 -458 13 -1147 17 -1013 5 -1118 4 -1145 -10z"/>
<path d="M6476 4659 c-53 -13 -93 -44 -127 -97 -93 -146 46 -346 220 -317 58
10 116 52 144 104 34 63 39 93 27 148 -27 118 -145 191 -264 162z"/>
<path d="M3590 4592 c-57 -30 -92 -87 -89 -147 1 -11 5 -3 10 17 9 41 38 77
57 70 7 -2 12 5 12 15 0 11 3 14 8 6 8 -13 82 -20 100 -9 7 4 12 3 12 -2 0 -5
17 -6 41 -2 48 9 88 2 67 -11 -8 -5 7 -9 40 -9 29 0 60 5 71 11 12 8 24 9 35
2 11 -6 42 -6 84 0 37 5 82 7 99 5 18 -2 35 1 37 7 3 7 7 7 13 0 5 -6 43 -8
101 -5 50 3 92 3 92 0 0 -3 51 -6 113 -7 61 -1 112 -2 112 -3 0 0 59 -2 131
-4 77 -2 140 -9 154 -16 12 -6 20 -8 17 -3 -3 4 46 8 108 9 63 0 112 -3 109
-8 -3 -4 0 -8 5 -8 6 0 11 3 11 8 0 4 40 7 90 7 49 0 90 -3 90 -8 0 -4 10 -5
23 -3 34 8 242 19 337 19 47 0 87 4 91 8 3 5 20 4 39 -1 26 -8 37 -6 50 5 42
38 114 -13 123 -86 l4 -34 1 36 c2 26 -6 48 -27 76 -55 76 35 71 -1221 75
-915 2 -1129 1 -1150 -10z"/>
<path d="M6462 3957 c-51 -19 -98 -62 -122 -112 -58 -121 30 -277 164 -292
146 -17 279 131 236 262 -35 107 -178 180 -278 142z"/>
<path d="M3638 3902 c-80 -10 -139 -70 -137 -139 1 -30 3 -26 13 20 8 33 66
93 76 76 5 -7 9 -5 14 6 5 14 16 16 64 11 98 -9 235 -24 280 -30 23 -4 51 -2
62 4 12 7 21 7 25 0 7 -11 56 -2 65 11 3 5 29 5 58 0 55 -8 67 -1 30 17 -20 9
-17 11 23 11 55 1 109 -8 109 -19 0 -4 -19 -6 -42 -5 -24 1 -31 0 -15 -2 15
-2 25 -9 22 -14 -4 -5 14 -9 40 -9 28 0 44 -4 40 -10 -3 -5 -1 -10 4 -10 6 0
11 6 11 14 0 16 77 33 102 23 7 -3 1 -6 -14 -6 -18 -1 -28 -6 -28 -16 0 -12
12 -15 53 -14 38 1 46 3 27 8 l-25 7 29 6 c21 4 30 2 33 -11 4 -16 45 -25 93
-21 115 9 166 12 225 12 121 0 126 0 132 -22 3 -11 10 -20 15 -20 5 0 6 10 3
21 -7 20 -5 22 30 16 21 -4 45 -1 56 6 14 9 26 8 52 -1 18 -7 50 -12 70 -12
19 0 46 -4 60 -9 14 -6 29 -6 38 0 10 6 10 9 2 9 -7 0 -13 5 -13 11 0 7 9 9
23 5 12 -4 44 -8 71 -9 31 -1 50 -7 52 -15 1 -7 0 -8 -3 -2 -6 13 -40 13 -48
0 -5 -8 -11 -7 -21 1 -11 9 -14 8 -14 -6 0 -14 6 -16 41 -10 33 6 40 4 35 -6
-4 -8 2 -3 14 10 16 19 25 22 43 15 12 -5 37 -8 55 -6 24 2 32 8 32 23 0 18 5
19 91 13 67 -4 94 -2 99 6 5 9 10 6 15 -9 5 -17 10 -20 20 -11 8 6 28 12 45
12 17 1 33 5 36 10 9 15 66 -48 74 -83 l8 -34 1 31 c1 38 -33 91 -78 121 l-34
23 -891 0 c-490 0 -981 2 -1091 4 -110 3 -226 1 -257 -2z"/>
<path d="M6443 3246 c-58 -27 -109 -88 -119 -141 -14 -74 46 -179 124 -216 96
-47 221 -5 270 91 26 51 29 127 8 168 -35 67 -126 122 -200 122 -17 0 -54 -11
-83 -24z"/>
<path d="M3635 3211 c-27 -4 -60 -12 -72 -19 -27 -15 -53 -51 -52 -72 0 -10 2
-11 6 -2 2 6 12 12 21 12 15 0 15 -2 2 -10 -11 -7 -8 -9 15 -8 17 1 34 7 38
13 6 7 10 6 14 -2 3 -10 10 -10 25 -2 11 6 22 8 26 5 3 -3 15 1 28 9 19 12 23
12 27 0 4 -8 14 -11 26 -8 12 3 18 9 15 14 -3 5 0 9 5 9 6 0 11 -7 11 -15 0
-8 5 -15 10 -15 6 0 10 5 10 10 0 15 16 12 35 -6 12 -12 19 -13 29 -5 11 9 15
9 19 -1 4 -10 7 -11 18 0 7 6 24 12 39 12 14 0 32 4 39 9 9 6 22 6 34 -1 15
-7 18 -7 12 2 -6 9 -3 9 13 1 14 -8 29 -8 53 1 28 9 34 8 46 -7 13 -18 13 -18
14 1 0 15 2 16 7 4 8 -17 112 -23 112 -7 0 5 10 6 23 3 12 -4 47 -6 77 -5 30
1 86 2 123 2 45 0 64 3 55 9 -9 6 -6 7 10 3 13 -4 43 -7 68 -7 25 0 50 -6 58
-14 13 -12 16 -11 21 6 6 20 7 20 25 -2 17 -20 19 -21 20 -5 0 10 5 15 10 12
6 -4 7 -12 3 -18 -4 -7 2 -5 12 3 17 14 18 13 12 -2 -4 -12 -2 -18 8 -18 9 0
12 6 9 15 -5 12 4 15 47 15 30 0 69 4 87 9 20 6 30 6 27 0 -4 -5 11 -9 32 -10
156 -4 200 -3 190 4 -7 5 -3 6 8 1 25 -9 112 -11 183 -4 28 4 52 4 52 1 0 -4
37 -7 83 -8 45 -1 105 -4 132 -7 32 -3 57 0 70 8 11 7 54 16 95 20 41 4 83 8
93 9 9 1 17 5 17 9 0 17 22 7 51 -24 17 -19 26 -25 21 -13 -15 29 -63 72 -95
84 -31 12 -2162 13 -2252 2z"/>
</g>
</svg>
